# xmcd CD database file
#
# Track frame offsets:
#	150
#	14880
#	32703
#	49535
#	63660
#	76822
#	89919
#	105515
#	121717
#	139500
#	155876
#
# Disc length: 2278 seconds
#
# Revision: 2
# Processed by: cddbd v1.5.2PL0 Copyright (c) Steve Scherf et al.
# Submitted via: CDex 1.70beta2
#
DISCID=9108e40b
DTITLE=Jake Owen, 1981- - American Love
DYEAR=2016
DGENRE=Country NeoTraditional
TTITLE0=American Love
TTITLE1=After Midnight
TTITLE2=Where I Am
TTITLE3=Everybody Dies Young
TTITLE4=VW Van
TTITLE5=Good Company
TTITLE6=LAX
TTITLE7=If He Ain't Gonna Love You
TTITLE8=When You Love Someone
TTITLE9=You Ain't Going Nowhere
TTITLE10=American Country Love Song
EXTD=YEAR: 2016
EXTT0=
EXTT1=
EXTT2=
EXTT3=
EXTT4=
EXTT5=
EXTT6=
EXTT7=
EXTT8=
EXTT9=
EXTT10=
PLAYORDER=
